<svg width="512" height="512" viewBox="0 0 512 512" fill="none" xmlns="http://www.w3.org/2000/svg">
<circle cx="256" cy="256" r="240" fill="#1C71D8"/>
<path d="M132 92C158.51 92 180 113.49 180 140C180 158.883 169.095 175.215 153.24 183.052L159.15 195.727C162.865 193.367 167.273 192 172 192C185.255 192 196 202.745 196 216C196 229.255 185.255 240 172 240C158.745 240 148 229.255 148 216C148 208.943 151.045 202.597 155.894 198.206L149.585 184.676C144.139 186.821 138.207 188 132 188C105.49 188 84 166.51 84 140C84 113.49 105.49 92 132 92Z" fill="#F6F5F4"/>
<path d="M265.728 340C264.789 340 264 339.68 263.36 339.04C262.72 338.4 262.4 337.611 262.4 336.672V293.344C262.4 292.363 262.72 291.573 263.36 290.976C264 290.336 264.789 290.016 265.728 290.016H277.248C280.448 290.016 283.285 290.699 285.76 292.064C288.235 293.387 290.155 295.221 291.52 297.568C292.928 299.915 293.632 302.645 293.632 305.76C293.632 308.661 292.928 311.243 291.52 313.504C290.155 315.765 288.235 317.536 285.76 318.816C283.285 320.096 280.448 320.736 277.248 320.736H269.056V336.672C269.056 337.611 268.736 338.4 268.096 339.04C267.499 339.68 266.709 340 265.728 340ZM292.288 340C291.691 340 291.136 339.872 290.624 339.616C290.155 339.36 289.749 338.955 289.408 338.4L277.888 319.84L284.352 317.984L294.848 334.88C295.616 336.117 295.723 337.291 295.168 338.4C294.613 339.467 293.653 340 292.288 340ZM269.056 314.592H277.248C279.211 314.592 280.939 314.229 282.432 313.504C283.925 312.736 285.099 311.691 285.952 310.368C286.805 309.003 287.232 307.467 287.232 305.76C287.232 303.883 286.805 302.219 285.952 300.768C285.099 299.317 283.925 298.187 282.432 297.376C280.939 296.565 279.211 296.16 277.248 296.16H269.056V314.592ZM316.918 340.32C313.974 340.32 311.328 339.701 308.982 338.464C306.678 337.184 304.843 335.328 303.478 332.896C302.155 330.464 301.494 327.477 301.494 323.936V308.192C301.494 307.253 301.792 306.485 302.39 305.888C303.03 305.248 303.819 304.928 304.758 304.928C305.696 304.928 306.464 305.248 307.062 305.888C307.702 306.485 308.022 307.253 308.022 308.192V323.936C308.022 326.325 308.47 328.309 309.366 329.888C310.262 331.424 311.478 332.576 313.014 333.344C314.55 334.069 316.278 334.432 318.198 334.432C320.032 334.432 321.654 334.069 323.062 333.344C324.512 332.619 325.664 331.637 326.518 330.4C327.371 329.163 327.798 327.776 327.798 326.24H331.83C331.83 328.885 331.168 331.275 329.846 333.408C328.566 335.541 326.795 337.227 324.534 338.464C322.315 339.701 319.776 340.32 316.918 340.32ZM331.062 340C330.123 340 329.334 339.701 328.694 339.104C328.096 338.464 327.798 337.675 327.798 336.736V308.192C327.798 307.211 328.096 306.421 328.694 305.824C329.334 305.227 330.123 304.928 331.062 304.928C332.043 304.928 332.832 305.227 333.43 305.824C334.027 306.421 334.326 307.211 334.326 308.192V336.736C334.326 337.675 334.027 338.464 333.43 339.104C332.832 339.701 332.043 340 331.062 340ZM358.559 340.256C355.572 340.256 352.799 339.808 350.239 338.912C347.721 337.973 345.759 336.8 344.351 335.392C343.711 334.709 343.433 333.941 343.519 333.088C343.647 332.192 344.073 331.467 344.799 330.912C345.652 330.229 346.484 329.952 347.295 330.08C348.148 330.165 348.873 330.528 349.47 331.168C350.196 331.979 351.348 332.747 352.927 333.472C354.548 334.155 356.34 334.496 358.303 334.496C360.777 334.496 362.655 334.091 363.935 333.28C365.257 332.469 365.94 331.424 365.983 330.144C366.025 328.864 365.407 327.755 364.127 326.816C362.889 325.877 360.607 325.109 357.279 324.512C352.969 323.659 349.833 322.379 347.871 320.672C345.951 318.965 344.991 316.875 344.991 314.4C344.991 312.224 345.631 310.432 346.911 309.024C348.191 307.573 349.833 306.507 351.839 305.824C353.844 305.099 355.935 304.736 358.111 304.736C360.927 304.736 363.423 305.184 365.599 306.08C367.775 306.976 369.503 308.213 370.783 309.792C371.38 310.475 371.657 311.2 371.615 311.968C371.572 312.693 371.209 313.312 370.527 313.824C369.844 314.293 369.033 314.443 368.095 314.272C367.156 314.101 366.367 313.717 365.727 313.12C364.66 312.096 363.508 311.392 362.271 311.008C361.033 310.624 359.604 310.432 357.983 310.432C356.105 310.432 354.505 310.752 353.183 311.392C351.903 312.032 351.263 312.971 351.263 314.208C351.263 314.976 351.455 315.68 351.839 316.32C352.265 316.917 353.076 317.472 354.271 317.984C355.465 318.453 357.215 318.923 359.519 319.392C362.719 320.032 365.236 320.843 367.071 321.824C368.948 322.805 370.292 323.957 371.103 325.28C371.913 326.56 372.319 328.053 372.319 329.76C372.319 331.723 371.785 333.493 370.719 335.072C369.695 336.651 368.159 337.909 366.111 338.848C364.105 339.787 361.588 340.256 358.559 340.256ZM426.525 340.064C425.586 340.064 424.797 339.765 424.157 339.168C423.559 338.528 423.261 337.739 423.261 336.8V318.496C423.261 315.808 422.599 313.824 421.277 312.544C419.954 311.221 418.226 310.56 416.093 310.56C413.874 310.56 412.039 311.328 410.589 312.864C409.181 314.4 408.477 316.363 408.477 318.752H403.165C403.165 315.979 403.762 313.547 404.957 311.456C406.151 309.323 407.815 307.659 409.949 306.464C412.125 305.269 414.599 304.672 417.373 304.672C419.805 304.672 421.959 305.205 423.837 306.272C425.714 307.339 427.165 308.917 428.189 311.008C429.255 313.056 429.789 315.552 429.789 318.496V336.8C429.789 337.739 429.49 338.528 428.893 339.168C428.295 339.765 427.506 340.064 426.525 340.064ZM383.837 340.064C382.898 340.064 382.109 339.765 381.469 339.168C380.871 338.528 380.573 337.739 380.573 336.8V308.32C380.573 307.339 380.871 306.549 381.469 305.952C382.109 305.355 382.898 305.056 383.837 305.056C384.818 305.056 385.607 305.355 386.205 305.952C386.802 306.549 387.101 307.339 387.101 308.32V336.8C387.101 337.739 386.802 338.528 386.205 339.168C385.607 339.765 384.818 340.064 383.837 340.064ZM405.213 340.064C404.274 340.064 403.485 339.765 402.845 339.168C402.247 338.528 401.949 337.739 401.949 336.8V318.496C401.949 315.808 401.287 313.824 399.965 312.544C398.642 311.221 396.914 310.56 394.781 310.56C392.562 310.56 390.727 311.328 389.277 312.864C387.826 314.4 387.101 316.363 387.101 318.752H383.069C383.069 315.979 383.623 313.547 384.733 311.456C385.842 309.323 387.378 307.659 389.341 306.464C391.303 305.269 393.543 304.672 396.061 304.672C398.493 304.672 400.647 305.205 402.525 306.272C404.402 307.339 405.853 308.917 406.877 311.008C407.943 313.056 408.477 315.552 408.477 318.496V336.8C408.477 337.739 408.178 338.528 407.581 339.168C406.983 339.765 406.194 340.064 405.213 340.064Z" fill="white"/>
</svg>
