<svg width="256" height="256" viewBox="0 0 256 256" fill="none" xmlns="http://www.w3.org/2000/svg">
<circle cx="128" cy="128" r="120" fill="#1C71D8"/>
<path d="M66 46C79.2548 46 90 56.7452 90 70C90 79.2462 84.7702 87.2691 77.1084 91.2773L80.0479 97.5811C81.8023 96.5766 83.8334 96 86 96C92.6274 96 98 101.373 98 108C98 114.627 92.6274 120 86 120C79.3726 120 74 114.627 74 108C74 104.643 75.3792 101.61 77.6006 99.4316L74.3672 92.499C71.7617 93.4684 68.9431 94 66 94C52.7452 94 42 83.2548 42 70C42 56.7452 52.7452 46 66 46Z" fill="#F6F5F4"/>
<path d="M132.864 170C132.395 170 132 169.84 131.68 169.52C131.36 169.2 131.2 168.805 131.2 168.336V146.672C131.2 146.181 131.36 145.787 131.68 145.488C132 145.168 132.395 145.008 132.864 145.008H138.624C140.224 145.008 141.643 145.349 142.88 146.032C144.117 146.693 145.077 147.611 145.76 148.784C146.464 149.957 146.816 151.323 146.816 152.88C146.816 154.331 146.464 155.621 145.76 156.752C145.077 157.883 144.117 158.768 142.88 159.408C141.643 160.048 140.224 160.368 138.624 160.368H134.528V168.336C134.528 168.805 134.368 169.2 134.048 169.52C133.749 169.84 133.355 170 132.864 170ZM146.144 170C145.845 170 145.568 169.936 145.312 169.808C145.077 169.68 144.875 169.477 144.704 169.2L138.944 159.92L142.176 158.992L147.424 167.44C147.808 168.059 147.861 168.645 147.584 169.2C147.307 169.733 146.827 170 146.144 170ZM134.528 157.296H138.624C139.605 157.296 140.469 157.115 141.216 156.752C141.963 156.368 142.549 155.845 142.976 155.184C143.403 154.501 143.616 153.733 143.616 152.88C143.616 151.941 143.403 151.109 142.976 150.384C142.549 149.659 141.963 149.093 141.216 148.688C140.469 148.283 139.605 148.08 138.624 148.08H134.528V157.296ZM158.459 170.16C156.987 170.16 155.664 169.851 154.491 169.232C153.339 168.592 152.421 167.664 151.739 166.448C151.077 165.232 150.747 163.739 150.747 161.968V154.096C150.747 153.627 150.896 153.243 151.195 152.944C151.515 152.624 151.909 152.464 152.379 152.464C152.848 152.464 153.232 152.624 153.531 152.944C153.851 153.243 154.011 153.627 154.011 154.096V161.968C154.011 163.163 154.235 164.155 154.683 164.944C155.131 165.712 155.739 166.288 156.507 166.672C157.275 167.035 158.139 167.216 159.099 167.216C160.016 167.216 160.827 167.035 161.531 166.672C162.256 166.309 162.832 165.819 163.259 165.2C163.685 164.581 163.899 163.888 163.899 163.12H165.915C165.915 164.443 165.584 165.637 164.923 166.704C164.283 167.771 163.397 168.613 162.267 169.232C161.157 169.851 159.888 170.16 158.459 170.16ZM165.531 170C165.061 170 164.667 169.851 164.347 169.552C164.048 169.232 163.899 168.837 163.899 168.368V154.096C163.899 153.605 164.048 153.211 164.347 152.912C164.667 152.613 165.061 152.464 165.531 152.464C166.021 152.464 166.416 152.613 166.715 152.912C167.013 153.211 167.163 153.605 167.163 154.096V168.368C167.163 168.837 167.013 169.232 166.715 169.552C166.416 169.851 166.021 170 165.531 170ZM179.279 170.128C177.786 170.128 176.399 169.904 175.119 169.456C173.861 168.987 172.879 168.4 172.175 167.696C171.855 167.355 171.717 166.971 171.759 166.544C171.823 166.096 172.037 165.733 172.399 165.456C172.826 165.115 173.242 164.976 173.647 165.04C174.074 165.083 174.437 165.264 174.735 165.584C175.098 165.989 175.674 166.373 176.463 166.736C177.274 167.077 178.17 167.248 179.151 167.248C180.389 167.248 181.327 167.045 181.967 166.64C182.629 166.235 182.97 165.712 182.991 165.072C183.013 164.432 182.703 163.877 182.063 163.408C181.445 162.939 180.303 162.555 178.639 162.256C176.485 161.829 174.917 161.189 173.935 160.336C172.975 159.483 172.495 158.437 172.495 157.2C172.495 156.112 172.815 155.216 173.455 154.512C174.095 153.787 174.917 153.253 175.919 152.912C176.922 152.549 177.967 152.368 179.055 152.368C180.463 152.368 181.711 152.592 182.799 153.04C183.887 153.488 184.751 154.107 185.391 154.896C185.69 155.237 185.829 155.6 185.807 155.984C185.786 156.347 185.605 156.656 185.263 156.912C184.922 157.147 184.517 157.221 184.047 157.136C183.578 157.051 183.183 156.859 182.863 156.56C182.33 156.048 181.754 155.696 181.135 155.504C180.517 155.312 179.802 155.216 178.991 155.216C178.053 155.216 177.253 155.376 176.591 155.696C175.951 156.016 175.631 156.485 175.631 157.104C175.631 157.488 175.727 157.84 175.919 158.16C176.133 158.459 176.538 158.736 177.135 158.992C177.733 159.227 178.607 159.461 179.759 159.696C181.359 160.016 182.618 160.421 183.535 160.912C184.474 161.403 185.146 161.979 185.551 162.64C185.957 163.28 186.159 164.027 186.159 164.88C186.159 165.861 185.893 166.747 185.359 167.536C184.847 168.325 184.079 168.955 183.055 169.424C182.053 169.893 180.794 170.128 179.279 170.128ZM213.262 170.032C212.793 170.032 212.398 169.883 212.078 169.584C211.78 169.264 211.63 168.869 211.63 168.4V159.248C211.63 157.904 211.3 156.912 210.638 156.272C209.977 155.611 209.113 155.28 208.046 155.28C206.937 155.28 206.02 155.664 205.294 156.432C204.59 157.2 204.238 158.181 204.238 159.376H201.582C201.582 157.989 201.881 156.773 202.478 155.728C203.076 154.661 203.908 153.829 204.974 153.232C206.062 152.635 207.3 152.336 208.686 152.336C209.902 152.336 210.98 152.603 211.918 153.136C212.857 153.669 213.582 154.459 214.094 155.504C214.628 156.528 214.894 157.776 214.894 159.248V168.4C214.894 168.869 214.745 169.264 214.446 169.584C214.148 169.883 213.753 170.032 213.262 170.032ZM191.918 170.032C191.449 170.032 191.054 169.883 190.734 169.584C190.436 169.264 190.286 168.869 190.286 168.4V154.16C190.286 153.669 190.436 153.275 190.734 152.976C191.054 152.677 191.449 152.528 191.918 152.528C192.409 152.528 192.804 152.677 193.102 152.976C193.401 153.275 193.55 153.669 193.55 154.16V168.4C193.55 168.869 193.401 169.264 193.102 169.584C192.804 169.883 192.409 170.032 191.918 170.032ZM202.606 170.032C202.137 170.032 201.742 169.883 201.422 169.584C201.124 169.264 200.974 168.869 200.974 168.4V159.248C200.974 157.904 200.644 156.912 199.982 156.272C199.321 155.611 198.457 155.28 197.39 155.28C196.281 155.28 195.364 155.664 194.638 156.432C193.913 157.2 193.55 158.181 193.55 159.376H191.534C191.534 157.989 191.812 156.773 192.366 155.728C192.921 154.661 193.689 153.829 194.67 153.232C195.652 152.635 196.772 152.336 198.03 152.336C199.246 152.336 200.324 152.603 201.262 153.136C202.201 153.669 202.926 154.459 203.438 155.504C203.972 156.528 204.238 157.776 204.238 159.248V168.4C204.238 168.869 204.089 169.264 203.79 169.584C203.492 169.883 203.097 170.032 202.606 170.032Z" fill="white"/>
</svg>
