<svg width="1024" height="1024" viewBox="0 0 1024 1024" fill="none" xmlns="http://www.w3.org/2000/svg">
<circle cx="507" cy="518" r="480" fill="#1C71D8"/>
<g clip-path="url(#clip0_7_2)">
<path d="M383.891 354.5C390.427 354.51 395.753 358.928 395.753 364.344V366.689C395.753 371.304 400.257 375.61 405.503 376.994C405.782 377.071 406.061 377.149 406.246 377.226C411.539 378.648 418.225 377.379 421.475 373.649L423.193 371.727C425.003 369.612 427.789 368.189 430.946 367.766C434.057 367.381 437.214 367.997 439.768 369.535C445.107 372.727 446.268 378.917 442.414 383.301L440.696 385.262C437.446 388.953 438.004 394.645 441.3 398.336C441.485 398.49 441.625 398.681 441.764 398.835C445.014 402.565 451.375 404.757 456.668 403.334L459.407 402.604C465.629 400.912 472.315 403.758 474.358 408.91C476.4 414.101 472.964 419.638 466.743 421.33L464.003 422.061C458.71 423.483 454.95 428.329 455.136 432.904V433.596C455.275 438.171 458.71 443.056 464.003 444.479L466.743 445.209C472.964 446.863 476.4 452.438 474.358 457.59C472.315 462.742 465.629 465.588 459.407 463.935L456.621 463.166C451.328 461.743 445.014 463.935 441.764 467.665C441.578 467.819 441.439 468.011 441.3 468.165C437.957 471.856 437.4 477.547 440.65 481.238L442.414 483.238C446.268 487.622 445.06 493.773 439.768 496.965C434.475 500.156 427.046 499.195 423.193 494.812L421.475 492.851C418.225 489.121 411.539 487.852 406.293 489.274C406.061 489.351 405.782 489.429 405.503 489.506C400.257 490.89 395.753 495.196 395.753 499.811V502.156C395.753 507.578 390.415 512 383.868 512C377.322 512 371.983 507.578 371.983 502.156V499.811C371.983 495.196 367.525 490.89 362.233 489.506C362.047 489.429 361.722 489.39 361.489 489.313C356.243 487.852 349.557 489.121 346.307 492.851L344.589 494.812C340.735 499.195 333.307 500.156 328.014 496.965C322.675 493.773 321.515 487.622 325.368 483.238L327.086 481.238C330.336 477.547 329.779 471.856 326.483 468.165C326.343 468.011 326.157 467.819 326.018 467.665C322.768 463.935 316.453 461.743 311.16 463.166L308.421 463.896C302.2 465.588 295.468 462.742 293.472 457.59C291.429 452.437 294.818 446.862 301.086 445.17L303.778 444.479C309.025 443.056 312.832 438.172 312.647 433.596V432.904C312.507 428.329 309.025 423.483 303.733 422.061L301.086 421.33C294.818 419.638 291.429 414.101 293.472 408.91C295.468 403.758 302.2 400.912 308.421 402.604L311.16 403.334C316.453 404.757 322.768 402.565 326.018 398.835C326.203 398.681 326.343 398.49 326.436 398.336C329.779 394.645 330.382 388.953 327.086 385.262L325.414 383.301C321.514 378.879 322.722 372.727 328.061 369.535C330.568 367.997 333.771 367.382 336.882 367.805C339.993 368.189 342.779 369.612 344.636 371.727L346.307 373.649C349.557 377.341 356.243 378.648 361.535 377.187C361.721 377.11 362 377.071 362.278 376.994C367.525 375.571 372.028 371.265 372.028 366.689V364.344C372.028 358.928 377.355 354.511 383.891 354.5ZM336.703 438.077C336.935 440.203 337.415 442.353 338.232 444.537C337.526 442.445 337.01 440.288 336.703 438.077Z" fill="white"/>
</g>
<g clip-path="url(#clip1_7_2)">
<path d="M214.531 197C217.799 197.005 220.462 199.214 220.462 201.922V203.095C220.462 205.402 222.714 207.555 225.337 208.247C225.476 208.285 225.616 208.324 225.708 208.362C228.355 209.074 231.699 208.439 233.324 206.574L234.182 205.613C235.087 204.556 236.48 203.844 238.059 203.633C239.614 203.441 241.192 203.749 242.469 204.518C245.139 206.113 245.719 209.209 243.792 211.4L242.934 212.381C241.309 214.227 241.588 217.072 243.236 218.918C243.329 218.995 243.399 219.091 243.468 219.168C245.093 221.033 248.273 222.128 250.919 221.417L252.289 221.052C255.4 220.206 258.743 221.629 259.764 224.205C260.785 226.8 259.068 229.569 255.957 230.415L254.587 230.78C251.941 231.492 250.061 233.914 250.154 236.202V236.548C250.223 238.836 251.941 241.278 254.587 241.989L255.957 242.354C259.068 243.181 260.785 245.969 259.764 248.545C258.743 251.121 255.4 252.544 252.289 251.718L250.896 251.333C248.25 250.622 245.093 251.717 243.468 253.582C243.375 253.659 243.305 253.755 243.236 253.832C241.564 255.678 241.286 258.523 242.911 260.369L243.792 261.369C245.719 263.561 245.116 266.637 242.469 268.232C239.823 269.828 236.109 269.348 234.182 267.156L233.324 266.176C231.699 264.311 228.355 263.676 225.732 264.388C225.616 264.426 225.477 264.465 225.337 264.503C222.714 265.195 220.462 267.348 220.462 269.655V270.828C220.462 273.539 217.793 275.75 214.52 275.75C211.247 275.75 208.577 273.539 208.577 270.828V269.655C208.577 267.348 206.348 265.195 203.702 264.503C203.609 264.465 203.447 264.445 203.331 264.406C200.707 263.676 197.365 264.311 195.74 266.176L194.88 267.156C192.954 269.348 189.24 269.828 186.593 268.232C183.924 266.637 183.343 263.561 185.27 261.369L186.128 260.369C187.753 258.523 187.475 255.678 185.827 253.832C185.757 253.755 185.664 253.659 185.594 253.582C183.969 251.717 180.813 250.622 178.166 251.333L176.796 251.698C173.686 252.544 170.32 251.121 169.322 248.545C168.3 245.969 169.995 243.181 173.128 242.335L174.475 241.989C177.098 241.278 179.001 238.836 178.909 236.548V236.202C178.839 233.914 177.098 231.492 174.452 230.78L173.128 230.415C169.995 229.569 168.3 226.801 169.322 224.205C170.32 221.629 173.686 220.206 176.796 221.052L178.166 221.417C180.813 222.128 183.969 221.033 185.594 219.168C185.687 219.091 185.757 218.995 185.803 218.918C187.475 217.072 187.777 214.227 186.128 212.381L185.292 211.4C183.343 209.19 183.946 206.113 186.616 204.518C187.869 203.749 189.471 203.441 191.027 203.652C192.582 203.845 193.975 204.556 194.904 205.613L195.74 206.574C197.365 208.42 200.708 209.074 203.354 208.344C203.447 208.305 203.586 208.285 203.725 208.247C206.348 207.536 208.6 205.383 208.6 203.095V201.922C208.6 199.214 211.263 197.005 214.531 197ZM190.931 238.724C191.045 239.814 191.288 240.917 191.709 242.038C191.346 240.966 191.084 239.858 190.931 238.724Z" fill="white"/>
</g>
<rect width="183.962" height="22.5098" transform="matrix(0.645632 0.763649 -0.865064 0.501661 240.496 248.68)" fill="white"/>
<path d="M497.252 641.82H530.168C542.336 641.82 551.228 644.472 556.844 649.776C562.564 654.976 565.424 662.256 565.424 671.616C565.424 675.464 564.852 679 563.708 682.224C562.668 685.448 560.952 688.308 558.56 690.804C556.168 693.3 553.048 695.484 549.2 697.356C545.352 699.124 540.672 700.476 535.16 701.412V706.092H497.252V693.456L517.376 690.648C524.656 689.608 530.064 688.308 533.6 686.748C537.24 685.084 539.684 683.16 540.932 680.976C542.18 678.792 542.804 676.348 542.804 673.644C542.804 668.86 541.504 665.324 538.904 663.036C536.408 660.748 532.3 659.604 526.58 659.604H497.252V641.82ZM491.168 641.82H513.632V744H491.168V641.82ZM572.756 743.376V744H544.676L528.92 719.82C526.944 716.7 525.072 714.204 523.304 712.332C521.64 710.46 519.768 709.108 517.688 708.276C515.608 707.34 512.956 706.768 509.732 706.56C506.508 706.248 502.348 706.092 497.252 706.092V702.504H535.16C537.24 703.544 539.164 704.74 540.932 706.092C542.804 707.34 544.572 708.796 546.236 710.46C548.004 712.02 549.772 713.996 551.54 716.388L572.756 743.376ZM658.44 744H638.628L636.6 721.536H635.82V669.588H658.44V744ZM638.316 711.084L641.436 727.932C636.652 732.3 632.336 735.784 628.488 738.384C624.64 740.984 621.052 742.856 617.724 744C614.396 745.144 611.016 745.716 607.584 745.716C600.2 745.716 594.792 743.636 591.36 739.476C587.928 735.212 586.212 728.92 586.212 720.6V669.588H608.832V716.388C608.832 718.988 609.404 720.964 610.548 722.316C611.692 723.668 613.564 724.344 616.164 724.344C617.828 724.344 619.7 723.876 621.78 722.94C623.964 721.9 626.408 720.392 629.112 718.416C631.816 716.44 634.884 713.996 638.316 711.084ZM754.888 721.692C754.888 726.164 753.432 730.272 750.52 734.016C747.608 737.656 743.292 740.62 737.572 742.908C731.852 745.092 724.728 746.184 716.2 746.184C709.544 746.184 703.668 745.924 698.572 745.404C693.58 744.884 688.276 744.208 682.66 743.376L684.688 725.28C691.864 726.424 698.26 727.256 703.876 727.776C709.596 728.296 713.964 728.556 716.98 728.556C722.804 728.556 726.756 727.984 728.836 726.84C730.916 725.696 731.956 724.292 731.956 722.628C731.956 720.86 731.332 719.508 730.084 718.572C728.94 717.636 726.548 716.804 722.908 716.076L706.372 712.956C700.132 711.708 695.348 710.096 692.02 708.12C688.796 706.144 686.56 703.752 685.312 700.944C684.168 698.136 683.596 694.912 683.596 691.272C683.596 684.096 686.508 678.324 692.332 673.956C698.156 669.588 707.776 667.404 721.192 667.404C724.624 667.404 728.94 667.612 734.14 668.028C739.34 668.444 744.748 669.068 750.364 669.9L748.492 687.996C742.252 686.956 736.74 686.228 731.956 685.812C727.172 685.292 723.324 685.032 720.412 685.032C716.772 685.032 713.964 685.24 711.988 685.656C710.012 685.968 708.608 686.488 707.776 687.216C707.048 687.944 706.684 688.88 706.684 690.024C706.684 691.168 706.892 692.104 707.308 692.832C707.828 693.456 708.712 693.976 709.96 694.392C711.208 694.808 712.872 695.276 714.952 695.796L731.02 698.916C737.572 700.164 742.564 701.828 745.996 703.908C749.428 705.988 751.768 708.484 753.016 711.396C754.264 714.308 754.888 717.74 754.888 721.692ZM788.313 669.588L790.185 683.94H793.461C795.957 679.572 798.193 676.348 800.169 674.268C802.145 672.084 804.069 670.68 805.941 670.056C807.813 669.328 809.893 668.964 812.181 668.964C815.821 668.964 818.577 670.108 820.449 672.396C822.321 674.58 823.257 678.428 823.257 683.94H827.157C829.653 679.572 831.785 676.348 833.553 674.268C835.321 672.084 837.037 670.68 838.701 670.056C840.365 669.328 842.289 668.964 844.473 668.964C848.737 668.964 851.805 670.264 853.677 672.864C855.549 675.464 856.485 679.78 856.485 685.812V744H837.297V699.384C837.297 697.2 836.829 695.64 835.893 694.704C834.957 693.768 833.605 693.3 831.837 693.3C831.213 693.3 830.485 693.404 829.653 693.612C828.821 693.82 827.937 694.184 827.001 694.704C826.065 695.224 824.973 695.952 823.725 696.888V744H805.941V699.072C805.941 695.224 804.173 693.3 800.637 693.3C799.909 693.3 799.077 693.404 798.141 693.612C797.309 693.82 796.373 694.236 795.333 694.86C794.397 695.38 793.305 696.16 792.057 697.2V744H772.869V669.588H788.313Z" fill="white"/>
<defs>
<clipPath id="clip0_7_2">
<rect width="190.171" height="157.5" fill="white" transform="translate(288.829 354.5)"/>
</clipPath>
<clipPath id="clip1_7_2">
<rect width="95.0857" height="78.75" fill="white" transform="translate(167 197)"/>
</clipPath>
</defs>
</svg>
