<svg width="128" height="128" viewBox="0 0 128 128" fill="none" xmlns="http://www.w3.org/2000/svg">
<circle cx="64" cy="64" r="60" fill="#1C71D8"/>
<path d="M33 23C39.6274 23 45 28.3726 45 35C45 39.4444 42.5816 43.3206 38.9912 45.3945L40.4678 48.5596C41.2372 48.2008 42.0951 48 43 48C46.3137 48 49 50.6863 49 54C49 57.3137 46.3137 60 43 60C39.6863 60 37 57.3137 37 54C37 52.3218 37.6892 50.8047 38.7998 49.7158L37.1826 46.248C35.88 46.7326 34.4714 47 33 47C26.3726 47 21 41.6274 21 35C21 28.3726 26.3726 23 33 23Z" fill="#F6F5F4"/>
<path d="M66.432 85C66.1973 85 66 84.92 65.84 84.76C65.68 84.6 65.6 84.4027 65.6 84.168V73.336C65.6 73.0907 65.68 72.8933 65.84 72.744C66 72.584 66.1973 72.504 66.432 72.504H69.312C70.112 72.504 70.8213 72.6747 71.44 73.016C72.0587 73.3467 72.5387 73.8053 72.88 74.392C73.232 74.9787 73.408 75.6613 73.408 76.44C73.408 77.1653 73.232 77.8107 72.88 78.376C72.5387 78.9413 72.0587 79.384 71.44 79.704C70.8213 80.024 70.112 80.184 69.312 80.184H67.264V84.168C67.264 84.4027 67.184 84.6 67.024 84.76C66.8747 84.92 66.6773 85 66.432 85ZM73.072 85C72.9227 85 72.784 84.968 72.656 84.904C72.5387 84.84 72.4373 84.7387 72.352 84.6L69.472 79.96L71.088 79.496L73.712 83.72C73.904 84.0293 73.9307 84.3227 73.792 84.6C73.6533 84.8667 73.4133 85 73.072 85ZM67.264 78.648H69.312C69.8027 78.648 70.2347 78.5573 70.608 78.376C70.9813 78.184 71.2747 77.9227 71.488 77.592C71.7013 77.2507 71.808 76.8667 71.808 76.44C71.808 75.9707 71.7013 75.5547 71.488 75.192C71.2747 74.8293 70.9813 74.5467 70.608 74.344C70.2347 74.1413 69.8027 74.04 69.312 74.04H67.264V78.648ZM79.2294 85.08C78.4934 85.08 77.832 84.9253 77.2454 84.616C76.6694 84.296 76.2107 83.832 75.8694 83.224C75.5387 82.616 75.3734 81.8693 75.3734 80.984V77.048C75.3734 76.8133 75.448 76.6213 75.5974 76.472C75.7574 76.312 75.9547 76.232 76.1894 76.232C76.424 76.232 76.616 76.312 76.7654 76.472C76.9254 76.6213 77.0054 76.8133 77.0054 77.048V80.984C77.0054 81.5813 77.1174 82.0773 77.3414 82.472C77.5654 82.856 77.8694 83.144 78.2534 83.336C78.6374 83.5173 79.0694 83.608 79.5494 83.608C80.008 83.608 80.4134 83.5173 80.7654 83.336C81.128 83.1547 81.416 82.9093 81.6294 82.6C81.8427 82.2907 81.9494 81.944 81.9494 81.56H82.9574C82.9574 82.2213 82.792 82.8187 82.4614 83.352C82.1414 83.8853 81.6987 84.3067 81.1334 84.616C80.5787 84.9253 79.944 85.08 79.2294 85.08ZM82.7654 85C82.5307 85 82.3334 84.9253 82.1734 84.776C82.024 84.616 81.9494 84.4187 81.9494 84.184V77.048C81.9494 76.8027 82.024 76.6053 82.1734 76.456C82.3334 76.3067 82.5307 76.232 82.7654 76.232C83.0107 76.232 83.208 76.3067 83.3574 76.456C83.5067 76.6053 83.5814 76.8027 83.5814 77.048V84.184C83.5814 84.4187 83.5067 84.616 83.3574 84.776C83.208 84.9253 83.0107 85 82.7654 85ZM89.6396 85.064C88.893 85.064 88.1996 84.952 87.5596 84.728C86.9303 84.4933 86.4396 84.2 86.0876 83.848C85.9276 83.6773 85.8583 83.4853 85.8796 83.272C85.9116 83.048 86.0183 82.8667 86.1996 82.728C86.413 82.5573 86.621 82.488 86.8236 82.52C87.037 82.5413 87.2183 82.632 87.3676 82.792C87.549 82.9947 87.837 83.1867 88.2316 83.368C88.637 83.5387 89.085 83.624 89.5756 83.624C90.1943 83.624 90.6636 83.5227 90.9836 83.32C91.3143 83.1173 91.485 82.856 91.4956 82.536C91.5063 82.216 91.3516 81.9387 91.0316 81.704C90.7223 81.4693 90.1516 81.2773 89.3196 81.128C88.2423 80.9147 87.4583 80.5947 86.9676 80.168C86.4876 79.7413 86.2476 79.2187 86.2476 78.6C86.2476 78.056 86.4076 77.608 86.7276 77.256C87.0476 76.8933 87.4583 76.6267 87.9596 76.456C88.461 76.2747 88.9836 76.184 89.5276 76.184C90.2316 76.184 90.8556 76.296 91.3996 76.52C91.9436 76.744 92.3756 77.0533 92.6956 77.448C92.845 77.6187 92.9143 77.8 92.9036 77.992C92.893 78.1733 92.8023 78.328 92.6316 78.456C92.461 78.5733 92.2583 78.6107 92.0236 78.568C91.789 78.5253 91.5916 78.4293 91.4316 78.28C91.165 78.024 90.877 77.848 90.5676 77.752C90.2583 77.656 89.901 77.608 89.4956 77.608C89.0263 77.608 88.6263 77.688 88.2956 77.848C87.9756 78.008 87.8156 78.2427 87.8156 78.552C87.8156 78.744 87.8636 78.92 87.9596 79.08C88.0663 79.2293 88.269 79.368 88.5676 79.496C88.8663 79.6133 89.3036 79.7307 89.8796 79.848C90.6796 80.008 91.309 80.2107 91.7676 80.456C92.237 80.7013 92.573 80.9893 92.7756 81.32C92.9783 81.64 93.0796 82.0133 93.0796 82.44C93.0796 82.9307 92.9463 83.3733 92.6796 83.768C92.4236 84.1627 92.0396 84.4773 91.5276 84.712C91.0263 84.9467 90.397 85.064 89.6396 85.064ZM106.631 85.016C106.396 85.016 106.199 84.9413 106.039 84.792C105.89 84.632 105.815 84.4347 105.815 84.2V79.624C105.815 78.952 105.65 78.456 105.319 78.136C104.988 77.8053 104.556 77.64 104.023 77.64C103.468 77.64 103.01 77.832 102.647 78.216C102.295 78.6 102.119 79.0907 102.119 79.688H100.791C100.791 78.9947 100.94 78.3867 101.239 77.864C101.538 77.3307 101.954 76.9147 102.487 76.616C103.031 76.3173 103.65 76.168 104.343 76.168C104.951 76.168 105.49 76.3013 105.959 76.568C106.428 76.8347 106.791 77.2293 107.047 77.752C107.314 78.264 107.447 78.888 107.447 79.624V84.2C107.447 84.4347 107.372 84.632 107.223 84.792C107.074 84.9413 106.876 85.016 106.631 85.016ZM95.9591 85.016C95.7245 85.016 95.5271 84.9413 95.3671 84.792C95.2178 84.632 95.1431 84.4347 95.1431 84.2V77.08C95.1431 76.8347 95.2178 76.6373 95.3671 76.488C95.5271 76.3387 95.7245 76.264 95.9591 76.264C96.2045 76.264 96.4018 76.3387 96.5511 76.488C96.7005 76.6373 96.7751 76.8347 96.7751 77.08V84.2C96.7751 84.4347 96.7005 84.632 96.5511 84.792C96.4018 84.9413 96.2045 85.016 95.9591 85.016ZM101.303 85.016C101.068 85.016 100.871 84.9413 100.711 84.792C100.562 84.632 100.487 84.4347 100.487 84.2V79.624C100.487 78.952 100.322 78.456 99.9911 78.136C99.6605 77.8053 99.2285 77.64 98.6951 77.64C98.1405 77.64 97.6818 77.832 97.3191 78.216C96.9565 78.6 96.7751 79.0907 96.7751 79.688H95.7671C95.7671 78.9947 95.9058 78.3867 96.1831 77.864C96.4605 77.3307 96.8445 76.9147 97.3351 76.616C97.8258 76.3173 98.3858 76.168 99.0151 76.168C99.6231 76.168 100.162 76.3013 100.631 76.568C101.1 76.8347 101.463 77.2293 101.719 77.752C101.986 78.264 102.119 78.888 102.119 79.624V84.2C102.119 84.4347 102.044 84.632 101.895 84.792C101.746 84.9413 101.548 85.016 101.303 85.016Z" fill="white"/>
</svg>
