<svg width="64" height="64" viewBox="0 0 64 64" fill="none" xmlns="http://www.w3.org/2000/svg">
<circle cx="32" cy="32" r="30" fill="#1C71D8"/>
<path d="M16.5 11.5C19.8137 11.5 22.5 14.1863 22.5 17.5C22.5 19.722 21.2911 21.6603 19.4961 22.6973L20.2344 24.2822C20.6192 24.1027 21.0473 24 21.5 24C23.1569 24 24.5 25.3431 24.5 27C24.5 28.6569 23.1569 30 21.5 30C19.8431 30 18.5 28.6569 18.5 27C18.5 26.1609 18.8451 25.4029 19.4004 24.8584L18.5908 23.124C17.9396 23.3662 17.2355 23.5 16.5 23.5C13.1863 23.5 10.5 20.8137 10.5 17.5C10.5 14.1863 13.1863 11.5 16.5 11.5Z" fill="#F6F5F4"/>
<path d="M33.216 42.5C33.0987 42.5 33 42.46 32.92 42.38C32.84 42.3 32.8 42.2013 32.8 42.084V36.668C32.8 36.5453 32.84 36.4467 32.92 36.372C33 36.292 33.0987 36.252 33.216 36.252H34.656C35.056 36.252 35.4107 36.3373 35.72 36.508C36.0293 36.6733 36.2693 36.9027 36.44 37.196C36.616 37.4893 36.704 37.8307 36.704 38.22C36.704 38.5827 36.616 38.9053 36.44 39.188C36.2693 39.4707 36.0293 39.692 35.72 39.852C35.4107 40.012 35.056 40.092 34.656 40.092H33.632V42.084C33.632 42.2013 33.592 42.3 33.512 42.38C33.4373 42.46 33.3387 42.5 33.216 42.5ZM36.536 42.5C36.4613 42.5 36.392 42.484 36.328 42.452C36.2693 42.42 36.2187 42.3693 36.176 42.3L34.736 39.98L35.544 39.748L36.856 41.86C36.952 42.0147 36.9653 42.1613 36.896 42.3C36.8267 42.4333 36.7067 42.5 36.536 42.5ZM33.632 39.324H34.656C34.9013 39.324 35.1173 39.2787 35.304 39.188C35.4907 39.092 35.6373 38.9613 35.744 38.796C35.8507 38.6253 35.904 38.4333 35.904 38.22C35.904 37.9853 35.8507 37.7773 35.744 37.596C35.6373 37.4147 35.4907 37.2733 35.304 37.172C35.1173 37.0707 34.9013 37.02 34.656 37.02H33.632V39.324ZM39.6147 42.54C39.2467 42.54 38.916 42.4627 38.6227 42.308C38.3347 42.148 38.1054 41.916 37.9347 41.612C37.7694 41.308 37.6867 40.9347 37.6867 40.492V38.524C37.6867 38.4067 37.724 38.3107 37.7987 38.236C37.8787 38.156 37.9774 38.116 38.0947 38.116C38.212 38.116 38.308 38.156 38.3827 38.236C38.4627 38.3107 38.5027 38.4067 38.5027 38.524V40.492C38.5027 40.7907 38.5587 41.0387 38.6707 41.236C38.7827 41.428 38.9347 41.572 39.1267 41.668C39.3187 41.7587 39.5347 41.804 39.7747 41.804C40.004 41.804 40.2067 41.7587 40.3827 41.668C40.564 41.5773 40.708 41.4547 40.8147 41.3C40.9214 41.1453 40.9747 40.972 40.9747 40.78H41.4787C41.4787 41.1107 41.396 41.4093 41.2307 41.676C41.0707 41.9427 40.8494 42.1533 40.5667 42.308C40.2894 42.4627 39.972 42.54 39.6147 42.54ZM41.3827 42.5C41.2654 42.5 41.1667 42.4627 41.0867 42.388C41.012 42.308 40.9747 42.2093 40.9747 42.092V38.524C40.9747 38.4013 41.012 38.3027 41.0867 38.228C41.1667 38.1533 41.2654 38.116 41.3827 38.116C41.5054 38.116 41.604 38.1533 41.6787 38.228C41.7534 38.3027 41.7907 38.4013 41.7907 38.524V42.092C41.7907 42.2093 41.7534 42.308 41.6787 42.388C41.604 42.4627 41.5054 42.5 41.3827 42.5ZM44.8198 42.532C44.4465 42.532 44.0998 42.476 43.7798 42.364C43.4651 42.2467 43.2198 42.1 43.0438 41.924C42.9638 41.8387 42.9291 41.7427 42.9398 41.636C42.9558 41.524 43.0091 41.4333 43.0998 41.364C43.2065 41.2787 43.3105 41.244 43.4118 41.26C43.5185 41.2707 43.6091 41.316 43.6838 41.396C43.7745 41.4973 43.9185 41.5933 44.1158 41.684C44.3185 41.7693 44.5425 41.812 44.7878 41.812C45.0971 41.812 45.3318 41.7613 45.4918 41.66C45.6571 41.5587 45.7425 41.428 45.7478 41.268C45.7531 41.108 45.6758 40.9693 45.5158 40.852C45.3611 40.7347 45.0758 40.6387 44.6598 40.564C44.1211 40.4573 43.7291 40.2973 43.4838 40.084C43.2438 39.8707 43.1238 39.6093 43.1238 39.3C43.1238 39.028 43.2038 38.804 43.3638 38.628C43.5238 38.4467 43.7291 38.3133 43.9798 38.228C44.2305 38.1373 44.4918 38.092 44.7638 38.092C45.1158 38.092 45.4278 38.148 45.6998 38.26C45.9718 38.372 46.1878 38.5267 46.3478 38.724C46.4225 38.8093 46.4571 38.9 46.4518 38.996C46.4465 39.0867 46.4011 39.164 46.3158 39.228C46.2305 39.2867 46.1291 39.3053 46.0118 39.284C45.8945 39.2627 45.7958 39.2147 45.7158 39.14C45.5825 39.012 45.4385 38.924 45.2838 38.876C45.1291 38.828 44.9505 38.804 44.7478 38.804C44.5131 38.804 44.3131 38.844 44.1478 38.924C43.9878 39.004 43.9078 39.1213 43.9078 39.276C43.9078 39.372 43.9318 39.46 43.9798 39.54C44.0331 39.6147 44.1345 39.684 44.2838 39.748C44.4331 39.8067 44.6518 39.8653 44.9398 39.924C45.3398 40.004 45.6545 40.1053 45.8838 40.228C46.1185 40.3507 46.2865 40.4947 46.3878 40.66C46.4891 40.82 46.5398 41.0067 46.5398 41.22C46.5398 41.4653 46.4731 41.6867 46.3398 41.884C46.2118 42.0813 46.0198 42.2387 45.7638 42.356C45.5131 42.4733 45.1985 42.532 44.8198 42.532ZM53.3156 42.508C53.1982 42.508 53.0996 42.4707 53.0196 42.396C52.9449 42.316 52.9076 42.2173 52.9076 42.1V39.812C52.9076 39.476 52.8249 39.228 52.6596 39.068C52.4942 38.9027 52.2782 38.82 52.0116 38.82C51.7342 38.82 51.5049 38.916 51.3236 39.108C51.1476 39.3 51.0596 39.5453 51.0596 39.844H50.3956C50.3956 39.4973 50.4702 39.1933 50.6196 38.932C50.7689 38.6653 50.9769 38.4573 51.2436 38.308C51.5156 38.1587 51.8249 38.084 52.1716 38.084C52.4756 38.084 52.7449 38.1507 52.9796 38.284C53.2142 38.4173 53.3956 38.6147 53.5236 38.876C53.6569 39.132 53.7236 39.444 53.7236 39.812V42.1C53.7236 42.2173 53.6862 42.316 53.6116 42.396C53.5369 42.4707 53.4382 42.508 53.3156 42.508ZM47.9796 42.508C47.8622 42.508 47.7636 42.4707 47.6836 42.396C47.6089 42.316 47.5716 42.2173 47.5716 42.1V38.54C47.5716 38.4173 47.6089 38.3187 47.6836 38.244C47.7636 38.1693 47.8622 38.132 47.9796 38.132C48.1022 38.132 48.2009 38.1693 48.2756 38.244C48.3502 38.3187 48.3876 38.4173 48.3876 38.54V42.1C48.3876 42.2173 48.3502 42.316 48.2756 42.396C48.2009 42.4707 48.1022 42.508 47.9796 42.508ZM50.6516 42.508C50.5342 42.508 50.4356 42.4707 50.3556 42.396C50.2809 42.316 50.2436 42.2173 50.2436 42.1V39.812C50.2436 39.476 50.1609 39.228 49.9956 39.068C49.8302 38.9027 49.6142 38.82 49.3476 38.82C49.0702 38.82 48.8409 38.916 48.6596 39.108C48.4782 39.3 48.3876 39.5453 48.3876 39.844H47.8836C47.8836 39.4973 47.9529 39.1933 48.0916 38.932C48.2302 38.6653 48.4222 38.4573 48.6676 38.308C48.9129 38.1587 49.1929 38.084 49.5076 38.084C49.8116 38.084 50.0809 38.1507 50.3156 38.284C50.5502 38.4173 50.7316 38.6147 50.8596 38.876C50.9929 39.132 51.0596 39.444 51.0596 39.812V42.1C51.0596 42.2173 51.0222 42.316 50.9476 42.396C50.8729 42.4707 50.7742 42.508 50.6516 42.508Z" fill="white"/>
</svg>
