<svg width="1024" height="1024" viewBox="0 0 1024 1024" fill="none" xmlns="http://www.w3.org/2000/svg">
<circle cx="507" cy="518" r="480" fill="#1C71D8"/>
<path d="M264 190C317.019 190 360 232.981 360 286C360 325.475 336.173 359.384 302.117 374.133L314.311 400.28C322.48 393.841 332.791 390 344 390C370.51 390 392 411.49 392 438C392 464.51 370.51 486 344 486C317.49 486 296 464.51 296 438C296 424.574 301.514 412.436 310.399 403.725L297.472 376.001C287.05 379.879 275.773 382 264 382C210.981 382 168 339.019 168 286C168 232.981 210.981 190 264 190Z" fill="#F6F5F4"/>
<path d="M531.456 687C529.579 687 528 686.36 526.72 685.08C525.44 683.8 524.8 682.221 524.8 680.344V593.688C524.8 591.725 525.44 590.147 526.72 588.952C528 587.672 529.579 587.032 531.456 587.032H554.496C560.896 587.032 566.571 588.397 571.52 591.128C576.469 593.773 580.309 597.443 583.04 602.136C585.856 606.829 587.264 612.291 587.264 618.52C587.264 624.323 585.856 629.485 583.04 634.008C580.309 638.531 576.469 642.072 571.52 644.632C566.571 647.192 560.896 648.472 554.496 648.472H538.112V680.344C538.112 682.221 537.472 683.8 536.192 685.08C534.997 686.36 533.419 687 531.456 687ZM584.576 687C583.381 687 582.272 686.744 581.248 686.232C580.309 685.72 579.499 684.909 578.816 683.8L555.776 646.68L568.704 642.968L589.696 676.76C591.232 679.235 591.445 681.581 590.336 683.8C589.227 685.933 587.307 687 584.576 687ZM538.112 636.184H554.496C558.421 636.184 561.877 635.459 564.864 634.008C567.851 632.472 570.197 630.381 571.904 627.736C573.611 625.005 574.464 621.933 574.464 618.52C574.464 614.765 573.611 611.437 571.904 608.536C570.197 605.635 567.851 603.373 564.864 601.752C561.877 600.131 558.421 599.32 554.496 599.32H538.112V636.184ZM633.835 687.64C627.947 687.64 622.656 686.403 617.963 683.928C613.355 681.368 609.686 677.656 606.955 672.792C604.31 667.928 602.987 661.955 602.987 654.872V623.384C602.987 621.507 603.584 619.971 604.779 618.776C606.059 617.496 607.638 616.856 609.515 616.856C611.392 616.856 612.928 617.496 614.123 618.776C615.403 619.971 616.043 621.507 616.043 623.384V654.872C616.043 659.651 616.939 663.619 618.731 666.776C620.523 669.848 622.955 672.152 626.027 673.688C629.099 675.139 632.555 675.864 636.395 675.864C640.064 675.864 643.307 675.139 646.123 673.688C649.024 672.237 651.328 670.275 653.035 667.8C654.742 665.325 655.595 662.552 655.595 659.48H663.659C663.659 664.771 662.336 669.549 659.691 673.816C657.131 678.083 653.59 681.453 649.067 683.928C644.63 686.403 639.552 687.64 633.835 687.64ZM662.123 687C660.246 687 658.667 686.403 657.387 685.208C656.192 683.928 655.595 682.349 655.595 680.472V623.384C655.595 621.421 656.192 619.843 657.387 618.648C658.667 617.453 660.246 616.856 662.123 616.856C664.086 616.856 665.664 617.453 666.859 618.648C668.054 619.843 668.651 621.421 668.651 623.384V680.472C668.651 682.349 668.054 683.928 666.859 685.208C665.664 686.403 664.086 687 662.123 687ZM717.117 687.512C711.144 687.512 705.597 686.616 700.477 684.824C695.442 682.947 691.517 680.6 688.701 677.784C687.421 676.419 686.866 674.883 687.037 673.176C687.293 671.384 688.146 669.933 689.597 668.824C691.304 667.459 692.968 666.904 694.589 667.16C696.296 667.331 697.746 668.056 698.941 669.336C700.392 670.957 702.696 672.493 705.853 673.944C709.096 675.309 712.68 675.992 716.605 675.992C721.554 675.992 725.309 675.181 727.869 673.56C730.514 671.939 731.88 669.848 731.965 667.288C732.05 664.728 730.813 662.509 728.253 660.632C725.778 658.755 721.213 657.219 714.557 656.024C705.938 654.317 699.666 651.757 695.741 648.344C691.901 644.931 689.981 640.749 689.981 635.8C689.981 631.448 691.261 627.864 693.821 625.048C696.381 622.147 699.666 620.013 703.677 618.648C707.688 617.197 711.869 616.472 716.221 616.472C721.853 616.472 726.845 617.368 731.197 619.16C735.549 620.952 739.005 623.427 741.565 626.584C742.76 627.949 743.314 629.4 743.229 630.936C743.144 632.387 742.418 633.624 741.053 634.648C739.688 635.587 738.066 635.885 736.189 635.544C734.312 635.203 732.733 634.435 731.453 633.24C729.32 631.192 727.016 629.784 724.541 629.016C722.066 628.248 719.208 627.864 715.965 627.864C712.21 627.864 709.01 628.504 706.365 629.784C703.805 631.064 702.525 632.941 702.525 635.416C702.525 636.952 702.909 638.36 703.677 639.64C704.53 640.835 706.152 641.944 708.541 642.968C710.93 643.907 714.429 644.845 719.037 645.784C725.437 647.064 730.472 648.685 734.141 650.648C737.896 652.611 740.584 654.915 742.205 657.56C743.826 660.12 744.637 663.107 744.637 666.52C744.637 670.445 743.57 673.987 741.437 677.144C739.389 680.301 736.317 682.819 732.221 684.696C728.21 686.573 723.176 687.512 717.117 687.512ZM853.049 687.128C851.172 687.128 849.593 686.531 848.313 685.336C847.118 684.056 846.521 682.477 846.521 680.6V643.992C846.521 638.616 845.198 634.648 842.553 632.088C839.908 629.443 836.452 628.12 832.185 628.12C827.748 628.12 824.078 629.656 821.177 632.728C818.361 635.8 816.953 639.725 816.953 644.504H806.329C806.329 638.957 807.524 634.093 809.913 629.912C812.302 625.645 815.63 622.317 819.897 619.928C824.249 617.539 829.198 616.344 834.745 616.344C839.609 616.344 843.918 617.411 847.673 619.544C851.428 621.677 854.329 624.835 856.377 629.016C858.51 633.112 859.577 638.104 859.577 643.992V680.6C859.577 682.477 858.98 684.056 857.785 685.336C856.59 686.531 855.012 687.128 853.049 687.128ZM767.673 687.128C765.796 687.128 764.217 686.531 762.937 685.336C761.742 684.056 761.145 682.477 761.145 680.6V623.64C761.145 621.677 761.742 620.099 762.937 618.904C764.217 617.709 765.796 617.112 767.673 617.112C769.636 617.112 771.214 617.709 772.409 618.904C773.604 620.099 774.201 621.677 774.201 623.64V680.6C774.201 682.477 773.604 684.056 772.409 685.336C771.214 686.531 769.636 687.128 767.673 687.128ZM810.425 687.128C808.548 687.128 806.969 686.531 805.689 685.336C804.494 684.056 803.897 682.477 803.897 680.6V643.992C803.897 638.616 802.574 634.648 799.929 632.088C797.284 629.443 793.828 628.12 789.561 628.12C785.124 628.12 781.454 629.656 778.553 632.728C775.652 635.8 774.201 639.725 774.201 644.504H766.137C766.137 638.957 767.246 634.093 769.465 629.912C771.684 625.645 774.756 622.317 778.681 619.928C782.606 617.539 787.086 616.344 792.121 616.344C796.985 616.344 801.294 617.411 805.049 619.544C808.804 621.677 811.705 624.835 813.753 629.016C815.886 633.112 816.953 638.104 816.953 643.992V680.6C816.953 682.477 816.356 684.056 815.161 685.336C813.966 686.531 812.388 687.128 810.425 687.128Z" fill="white"/>
</svg>
