<svg width="1041" height="223" viewBox="0 0 1041 223" fill="none" xmlns="http://www.w3.org/2000/svg">
<path d="M608.072 3.52V10.688L604.552 11.2H577.48V3.52H608.072ZM591.88 45.44H581.256V45.312L600.264 9.472L599.176 13.12V9.984H608.072V11.584L591.88 45.44ZM627.225 0V45.44H617.945V0H627.225ZM626.201 28.416L624.921 21.504C626.926 19.712 628.697 18.2827 630.233 17.216C631.811 16.1493 633.283 15.3813 634.649 14.912C636.057 14.4427 637.443 14.208 638.809 14.208C641.838 14.208 644.057 15.0827 645.465 16.832C646.873 18.5387 647.577 21.0987 647.577 24.512V45.44H638.297V26.24C638.297 25.1307 638.062 24.32 637.593 23.808C637.166 23.2533 636.398 22.976 635.289 22.976C634.606 22.976 633.817 23.1893 632.921 23.616C632.067 24 631.086 24.5973 629.977 25.408C628.867 26.176 627.609 27.1787 626.201 28.416ZM676.777 39.04L681.769 39.232L681.449 46.272L673.705 46.144C667.262 46.0587 662.676 44.672 659.945 41.984C657.257 39.296 655.913 35.4347 655.913 30.4C655.913 27.4133 656.574 24.6827 657.897 22.208C659.22 19.6907 661.118 17.6853 663.593 16.192C666.068 14.6987 669.012 13.952 672.425 13.952C675.582 13.952 678.313 14.6133 680.617 15.936C682.921 17.216 684.713 19.008 685.993 21.312C687.273 23.5733 687.913 26.1973 687.913 29.184C687.913 29.9947 687.87 30.7413 687.785 31.424C687.7 32.1067 687.614 32.6827 687.529 33.152H662.057V26.944H683.881L679.081 27.648C679.081 25.6 678.484 23.9573 677.289 22.72C676.137 21.4827 674.537 20.864 672.489 20.864C670.91 20.864 669.545 21.2053 668.393 21.888C667.241 22.5707 666.345 23.5733 665.705 24.896C665.065 26.2187 664.745 27.84 664.745 29.76C664.745 32.064 665.065 33.8773 665.705 35.2C666.388 36.48 667.604 37.4187 669.353 38.016C671.102 38.5707 673.577 38.912 676.777 39.04ZM581.128 91.52H594.632C599.624 91.52 603.272 92.608 605.576 94.784C607.923 96.9173 609.096 99.904 609.096 103.744C609.096 105.323 608.861 106.773 608.392 108.096C607.965 109.419 607.261 110.592 606.28 111.616C605.299 112.64 604.019 113.536 602.44 114.304C600.861 115.029 598.941 115.584 596.68 115.968V117.888H581.128V112.704L589.384 111.552C592.371 111.125 594.589 110.592 596.04 109.952C597.533 109.269 598.536 108.48 599.048 107.584C599.56 106.688 599.816 105.685 599.816 104.576C599.816 102.613 599.283 101.163 598.216 100.224C597.192 99.2853 595.507 98.816 593.16 98.816H581.128V91.52ZM578.632 91.52H587.848V133.44H578.632V91.52ZM612.104 133.184V133.44H600.584L594.12 123.52C593.309 122.24 592.541 121.216 591.816 120.448C591.133 119.68 590.365 119.125 589.512 118.784C588.659 118.4 587.571 118.165 586.248 118.08C584.925 117.952 583.219 117.888 581.128 117.888V116.416H596.68C597.533 116.843 598.323 117.333 599.048 117.888C599.816 118.4 600.541 118.997 601.224 119.68C601.949 120.32 602.675 121.131 603.4 122.112L612.104 133.184ZM647.257 133.44H639.129L638.297 124.224H637.977V102.912H647.257V133.44ZM639.001 119.936L640.281 126.848C638.318 128.64 636.547 130.069 634.969 131.136C633.39 132.203 631.918 132.971 630.553 133.44C629.187 133.909 627.801 134.144 626.393 134.144C623.363 134.144 621.145 133.291 619.737 131.584C618.329 129.835 617.625 127.253 617.625 123.84V102.912H626.905V122.112C626.905 123.179 627.139 123.989 627.609 124.544C628.078 125.099 628.846 125.376 629.913 125.376C630.595 125.376 631.363 125.184 632.217 124.8C633.113 124.373 634.115 123.755 635.225 122.944C636.334 122.133 637.593 121.131 639.001 119.936ZM659.817 91.52H684.393V99.2H660.905L659.817 98.496V91.52ZM659.241 91.52H667.433L666.089 110.016L664.681 115.712L658.089 114.432L657.897 114.112L659.241 91.52ZM686.953 118.4C686.953 121.216 686.228 123.669 684.777 125.76C683.369 127.808 681.044 129.493 677.801 130.816C674.601 132.096 670.27 132.971 664.809 133.44L657.385 134.08L656.489 126.016L664.105 125.312C667.689 124.971 670.462 124.501 672.425 123.904C674.388 123.307 675.753 122.517 676.521 121.536C677.289 120.555 677.673 119.36 677.673 117.952C677.673 116.928 677.46 116.075 677.033 115.392C676.606 114.709 675.988 114.197 675.177 113.856C674.409 113.515 673.492 113.344 672.425 113.344C671.145 113.344 669.844 113.557 668.521 113.984C667.198 114.411 665.918 114.987 664.681 115.712L664.425 110.08C665.876 108.8 667.476 107.861 669.225 107.264C670.974 106.667 672.894 106.368 674.985 106.368C677.204 106.368 679.209 106.837 681.001 107.776C682.836 108.715 684.286 110.08 685.353 111.872C686.42 113.664 686.953 115.84 686.953 118.4ZM700.538 102.912L701.306 108.8H702.65C703.674 107.008 704.591 105.685 705.402 104.832C706.212 103.936 707.002 103.36 707.77 103.104C708.538 102.805 709.391 102.656 710.33 102.656C711.823 102.656 712.954 103.125 713.722 104.064C714.49 104.96 714.874 106.539 714.874 108.8H716.474C717.498 107.008 718.372 105.685 719.098 104.832C719.823 103.936 720.527 103.36 721.21 103.104C721.892 102.805 722.682 102.656 723.578 102.656C725.327 102.656 726.586 103.189 727.354 104.256C728.122 105.323 728.506 107.093 728.506 109.568V133.44H720.634V115.136C720.634 114.24 720.442 113.6 720.058 113.216C719.674 112.832 719.119 112.64 718.394 112.64C718.138 112.64 717.839 112.683 717.498 112.768C717.156 112.853 716.794 113.003 716.41 113.216C716.026 113.429 715.578 113.728 715.066 114.112V133.44H707.77V115.008C707.77 113.429 707.044 112.64 705.594 112.64C705.295 112.64 704.954 112.683 704.57 112.768C704.228 112.853 703.844 113.024 703.418 113.28C703.034 113.493 702.586 113.813 702.074 114.24V133.44H694.202V102.912H700.538ZM608.84 200.448C608.84 205.44 608.243 209.557 607.048 212.8C605.853 216.043 604.083 218.453 601.736 220.032C599.432 221.611 596.573 222.4 593.16 222.4C588.125 222.4 584.285 220.651 581.64 217.152C579.037 213.653 577.736 208.128 577.736 200.576C577.736 195.541 578.333 191.403 579.528 188.16C580.723 184.917 582.493 182.507 584.84 180.928C587.187 179.349 590.045 178.56 593.416 178.56C598.451 178.56 602.269 180.331 604.872 183.872C607.517 187.371 608.84 192.896 608.84 200.448ZM586.44 200.448C586.44 204.075 586.675 206.912 587.144 208.96C587.613 210.965 588.339 212.373 589.32 213.184C590.344 213.995 591.667 214.4 593.288 214.4C594.952 214.4 596.275 213.995 597.256 213.184C598.28 212.373 599.005 210.965 599.432 208.96C599.901 206.955 600.136 204.16 600.136 200.576C600.136 196.949 599.901 194.133 599.432 192.128C598.963 190.08 598.216 188.651 597.192 187.84C596.211 187.029 594.909 186.624 593.288 186.624C591.667 186.624 590.344 187.029 589.32 187.84C588.296 188.651 587.549 190.059 587.08 192.064C586.653 194.027 586.44 196.821 586.44 200.448ZM584.008 205.44L602.824 188.16V195.456L584.008 212.736V205.44ZM631.193 190.912L631.705 199.744H632.281V221.44H623.065V190.912H631.193ZM630.169 208.448L631.513 199.552C632.963 197.675 634.222 196.203 635.289 195.136C636.355 194.027 637.315 193.195 638.169 192.64C639.065 192.043 639.897 191.637 640.665 191.424C641.475 191.211 642.307 191.083 643.161 191.04L648.665 190.592L649.433 199.936L643.929 200.448C642.478 200.576 641.262 200.747 640.281 200.96C639.342 201.173 638.425 201.536 637.529 202.048C636.633 202.56 635.609 203.328 634.457 204.352C633.347 205.333 631.918 206.699 630.169 208.448ZM617.817 190.912H628.249V198.72H617.817V190.912ZM616.537 213.632H640.345V221.44H616.537V213.632ZM678.377 194.048C678.377 192.384 678.121 190.955 677.609 189.76C677.097 188.565 676.372 187.648 675.433 187.008C674.537 186.368 673.47 186.048 672.233 186.048C670.868 186.048 669.673 186.325 668.649 186.88C667.668 187.435 666.9 188.267 666.345 189.376C665.79 190.485 665.513 191.851 665.513 193.472C665.513 196.075 666.11 198.016 667.305 199.296C668.542 200.576 670.27 201.216 672.489 201.216C673.854 201.216 675.156 201.109 676.393 200.896C677.673 200.64 679.124 200.213 680.745 199.616L677.417 205.696C676.094 206.336 674.75 206.784 673.385 207.04C672.062 207.296 670.846 207.424 669.737 207.424C666.836 207.424 664.361 206.891 662.313 205.824C660.308 204.757 658.772 203.179 657.705 201.088C656.638 198.955 656.105 196.373 656.105 193.344C656.105 190.4 656.788 187.819 658.153 185.6C659.561 183.381 661.481 181.653 663.913 180.416C666.345 179.179 669.161 178.56 672.361 178.56C675.689 178.56 678.484 179.243 680.745 180.608C683.049 181.973 684.777 183.808 685.929 186.112C687.081 188.373 687.657 190.933 687.657 193.792C687.657 196.437 687.273 198.976 686.505 201.408C685.737 203.84 684.521 206.293 682.857 208.768C681.236 211.2 679.081 213.76 676.393 216.448L671.465 221.44H659.625L659.561 221.312L668.393 213.12C670.697 210.987 672.574 208.811 674.025 206.592C675.518 204.373 676.606 202.197 677.289 200.064C678.014 197.931 678.377 195.925 678.377 194.048ZM706.618 215.424C707.386 215.424 708.239 215.317 709.178 215.104C710.116 214.891 711.183 214.485 712.378 213.888C713.615 213.248 715.002 212.373 716.538 211.264V218.176H715.77C714.191 219.413 712.399 220.395 710.394 221.12C708.388 221.803 706.191 222.144 703.802 222.144C701.028 222.144 698.767 221.376 697.018 219.84C695.268 218.304 694.394 216.043 694.394 213.056C694.394 211.051 694.714 209.387 695.354 208.064C696.036 206.699 697.167 205.632 698.746 204.864C700.367 204.053 702.607 203.499 705.466 203.2L716.922 202.112V207.424L707.898 208.64C706.703 208.811 705.764 209.067 705.082 209.408C704.442 209.707 703.994 210.112 703.738 210.624C703.482 211.093 703.354 211.691 703.354 212.416C703.354 213.312 703.631 214.037 704.186 214.592C704.74 215.147 705.551 215.424 706.618 215.424ZM724.794 211.904C724.794 212.971 724.9 213.696 725.114 214.08C725.37 214.421 725.903 214.635 726.714 214.72L729.594 214.976L728.826 221.824L723.642 221.504C721.679 221.376 720.122 221.056 718.97 220.544C717.86 219.989 717.05 219.2 716.538 218.176L716.026 215.68V200.704C716.026 199.893 715.876 199.253 715.578 198.784C715.279 198.272 714.682 197.909 713.786 197.696C712.89 197.44 711.567 197.312 709.818 197.312C708.794 197.312 707.322 197.397 705.402 197.568C703.482 197.739 701.156 197.995 698.426 198.336L697.594 191.04C700.623 190.656 703.183 190.4 705.274 190.272C707.407 190.144 709.071 190.08 710.266 190.08C713.85 190.08 716.687 190.464 718.778 191.232C720.911 191.957 722.447 193.088 723.386 194.624C724.324 196.16 724.794 198.123 724.794 200.512V211.904ZM743.946 190.912L744.842 200.128H745.162V221.44H735.882V190.912H743.946ZM744.138 204.416L742.858 197.504C744.863 195.712 746.634 194.283 748.17 193.216C749.749 192.149 751.221 191.381 752.586 190.912C753.994 190.443 755.381 190.208 756.746 190.208C759.775 190.208 761.994 191.083 763.402 192.832C764.81 194.539 765.514 197.099 765.514 200.512V221.44H756.234V202.24C756.234 201.131 755.999 200.32 755.53 199.808C755.103 199.253 754.335 198.976 753.226 198.976C752.543 198.976 751.754 199.189 750.858 199.616C750.005 200 749.023 200.597 747.914 201.408C746.805 202.176 745.546 203.179 744.138 204.416ZM792.219 178.88H795.739V221.44H786.459V184.128L792.219 178.88ZM776.283 195.456V186.56L792.219 178.88V187.712L776.283 195.456ZM776.283 221.44V213.76H804.571V221.44H776.283ZM814.059 221.44V215.232L817.771 213.76H845.291V221.44H814.059ZM843.883 190.4C843.883 191.467 843.776 192.512 843.563 193.536C843.35 194.56 842.923 195.627 842.283 196.736C841.643 197.845 840.704 199.104 839.467 200.512C838.23 201.92 836.587 203.563 834.539 205.44L824.043 215.04L825.707 211.84V216L814.059 215.872V214.272L826.155 202.816C828.032 201.024 829.526 199.509 830.635 198.272C831.744 197.035 832.576 195.989 833.131 195.136C833.728 194.24 834.112 193.451 834.283 192.768C834.454 192.085 834.539 191.424 834.539 190.784C834.539 189.461 834.155 188.437 833.387 187.712C832.619 186.944 831.446 186.56 829.867 186.56C828.886 186.56 827.883 186.752 826.859 187.136C825.878 187.52 824.683 188.245 823.275 189.312C821.91 190.336 820.118 191.851 817.899 193.856L812.971 187.648C815.446 185.387 817.643 183.595 819.563 182.272C821.526 180.949 823.36 180.011 825.067 179.456C826.816 178.859 828.63 178.56 830.507 178.56C833.11 178.56 835.414 179.029 837.419 179.968C839.424 180.907 841.003 182.251 842.155 184C843.307 185.749 843.883 187.883 843.883 190.4ZM863.868 215.424C864.636 215.424 865.489 215.317 866.428 215.104C867.366 214.891 868.433 214.485 869.628 213.888C870.865 213.248 872.252 212.373 873.788 211.264V218.176H873.02C871.441 219.413 869.649 220.395 867.644 221.12C865.638 221.803 863.441 222.144 861.052 222.144C858.278 222.144 856.017 221.376 854.268 219.84C852.518 218.304 851.644 216.043 851.644 213.056C851.644 211.051 851.964 209.387 852.604 208.064C853.286 206.699 854.417 205.632 855.996 204.864C857.617 204.053 859.857 203.499 862.716 203.2L874.172 202.112V207.424L865.148 208.64C863.953 208.811 863.014 209.067 862.332 209.408C861.692 209.707 861.244 210.112 860.988 210.624C860.732 211.093 860.604 211.691 860.604 212.416C860.604 213.312 860.881 214.037 861.436 214.592C861.99 215.147 862.801 215.424 863.868 215.424ZM882.044 211.904C882.044 212.971 882.15 213.696 882.364 214.08C882.62 214.421 883.153 214.635 883.964 214.72L886.844 214.976L886.076 221.824L880.892 221.504C878.929 221.376 877.372 221.056 876.22 220.544C875.11 219.989 874.3 219.2 873.788 218.176L873.276 215.68V200.704C873.276 199.893 873.126 199.253 872.828 198.784C872.529 198.272 871.932 197.909 871.036 197.696C870.14 197.44 868.817 197.312 867.068 197.312C866.044 197.312 864.572 197.397 862.652 197.568C860.732 197.739 858.406 197.995 855.676 198.336L854.844 191.04C857.873 190.656 860.433 190.4 862.524 190.272C864.657 190.144 866.321 190.08 867.516 190.08C871.1 190.08 873.937 190.464 876.028 191.232C878.161 191.957 879.697 193.088 880.636 194.624C881.574 196.16 882.044 198.123 882.044 200.512V211.904ZM922.572 179.52V186.688L919.052 187.2H891.98V179.52H922.572ZM906.38 221.44H895.756V221.312L914.764 185.472L913.676 189.12V185.984H922.572V187.584L906.38 221.44ZM949.469 178.88H952.989V221.44H943.709V184.128L949.469 178.88ZM933.533 195.456V186.56L949.469 178.88V187.712L933.533 195.456ZM933.533 221.44V213.76H961.821V221.44H933.533ZM1001.97 200.448C1001.97 205.44 1001.37 209.557 1000.17 212.8C998.978 216.043 997.208 218.453 994.861 220.032C992.557 221.611 989.698 222.4 986.285 222.4C981.25 222.4 977.41 220.651 974.765 217.152C972.162 213.653 970.861 208.128 970.861 200.576C970.861 195.541 971.458 191.403 972.653 188.16C973.848 184.917 975.618 182.507 977.965 180.928C980.312 179.349 983.17 178.56 986.541 178.56C991.576 178.56 995.394 180.331 997.997 183.872C1000.64 187.371 1001.97 192.896 1001.97 200.448ZM979.565 200.448C979.565 204.075 979.8 206.912 980.269 208.96C980.738 210.965 981.464 212.373 982.445 213.184C983.469 213.995 984.792 214.4 986.413 214.4C988.077 214.4 989.4 213.995 990.381 213.184C991.405 212.373 992.13 210.965 992.557 208.96C993.026 206.955 993.261 204.16 993.261 200.576C993.261 196.949 993.026 194.133 992.557 192.128C992.088 190.08 991.341 188.651 990.317 187.84C989.336 187.029 988.034 186.624 986.413 186.624C984.792 186.624 983.469 187.029 982.445 187.84C981.421 188.651 980.674 190.059 980.205 192.064C979.778 194.027 979.565 196.821 979.565 200.448ZM977.133 205.44L995.949 188.16V195.456L977.133 212.736V205.44ZM1019.13 190.912L1020.03 200.128H1020.35V221.44H1011.07V190.912H1019.13ZM1019.33 204.416L1018.05 197.504C1020.05 195.712 1021.82 194.283 1023.36 193.216C1024.94 192.149 1026.41 191.381 1027.77 190.912C1029.18 190.443 1030.57 190.208 1031.93 190.208C1034.96 190.208 1037.18 191.083 1038.59 192.832C1040 194.539 1040.7 197.099 1040.7 200.512V221.44H1031.42V202.24C1031.42 201.131 1031.19 200.32 1030.72 199.808C1030.29 199.253 1029.52 198.976 1028.41 198.976C1027.73 198.976 1026.94 199.189 1026.05 199.616C1025.19 200 1024.21 200.597 1023.1 201.408C1021.99 202.176 1020.73 203.179 1019.33 204.416Z" fill="white"/>
<path d="M122.368 50.76V79.432L108.288 81.48H1.52588e-05V50.76H122.368ZM57.6 218.44H15.104V217.928L91.136 74.568L86.784 89.16V76.616H122.368V83.016L57.6 218.44ZM171.842 50.76H225.858C245.826 50.76 260.418 55.112 269.634 63.816C279.021 72.3493 283.714 84.296 283.714 99.656C283.714 105.971 282.775 111.773 280.898 117.064C279.191 122.355 276.375 127.048 272.45 131.144C268.525 135.24 263.405 138.824 257.09 141.896C250.775 144.797 243.095 147.016 234.05 148.552V156.232H171.842V135.496L204.866 130.888C216.813 129.181 225.687 127.048 231.49 124.488C237.463 121.757 241.474 118.6 243.522 115.016C245.57 111.432 246.594 107.421 246.594 102.984C246.594 95.1333 244.461 89.3307 240.194 85.576C236.098 81.8213 229.357 79.944 219.97 79.944H171.842V50.76ZM161.858 50.76H198.722V218.44H161.858V50.76ZM295.746 217.416V218.44H249.666L223.81 178.76C220.567 173.64 217.495 169.544 214.594 166.472C211.863 163.4 208.791 161.181 205.378 159.816C201.965 158.28 197.613 157.341 192.322 157C187.031 156.488 180.205 156.232 171.842 156.232V150.344H234.05C237.463 152.051 240.621 154.013 243.522 156.232C246.594 158.28 249.495 160.669 252.226 163.4C255.127 165.96 258.029 169.203 260.93 173.128L295.746 217.416ZM439.94 134.472C439.94 154.44 437.551 170.909 432.772 183.88C427.993 196.851 420.911 206.493 411.524 212.808C402.308 219.123 390.873 222.28 377.22 222.28C357.081 222.28 341.721 215.283 331.14 201.288C320.729 187.293 315.524 165.192 315.524 134.984C315.524 114.845 317.913 98.2907 322.692 85.32C327.471 72.3493 334.553 62.7067 343.94 56.392C353.327 50.0773 364.761 46.92 378.244 46.92C398.383 46.92 413.657 54.0027 424.068 68.168C434.649 82.1627 439.94 104.264 439.94 134.472ZM350.34 134.472C350.34 148.979 351.279 160.328 353.156 168.52C355.033 176.541 357.935 182.173 361.86 185.416C365.956 188.659 371.247 190.28 377.732 190.28C384.388 190.28 389.679 188.659 393.604 185.416C397.7 182.173 400.601 176.541 402.308 168.52C404.185 160.499 405.124 149.32 405.124 134.984C405.124 120.477 404.185 109.213 402.308 101.192C400.431 93 397.444 87.2827 393.348 84.04C389.423 80.7973 384.217 79.176 377.732 79.176C371.247 79.176 365.956 80.7973 361.86 84.04C357.764 87.2827 354.777 92.9147 352.9 100.936C351.193 108.787 350.34 119.965 350.34 134.472ZM340.612 154.44L415.876 85.32V114.504L340.612 183.624V154.44Z" fill="#9141AC"/>
<path d="M437.24 35.6H440.2V47.28H437.24V35.6ZM434.12 37.8V35.04H443.24V37.8H434.12ZM455.08 35.04L455.52 47.28H452.96L453.08 35.04H455.08ZM446.96 35.04L447.12 47.28H444.52L445 35.04H446.96ZM453.96 35.04L450.48 43.44H449.64L446 35.04H448L450.92 41.52H449.28L452.08 35.04H453.96Z" fill="white"/>
</svg>
